<?xml version="1.0" encoding="UTF-8" standalone="no"?>
<!DOCTYPE svg PUBLIC "-//W3C//DTD SVG 1.1//EN" "http://www.w3.org/Graphics/SVG/1.1/DTD/svg11.dtd">
<svg width="100%" height="100%" viewBox="0 0 1024 1024" version="1.1" xmlns="http://www.w3.org/2000/svg" xmlns:xlink="http://www.w3.org/1999/xlink" xml:space="preserve" xmlns:serif="http://www.serif.com/" style="fill-rule:evenodd;clip-rule:evenodd;stroke-linejoin:round;stroke-miterlimit:2;">
    <g transform="matrix(1,0,0,1,924,659.373)">
        <path d="M0,-310.746C0,-320.528 0,-330.311 -0.056,-340.094C-0.105,-348.335 -0.2,-356.574 -0.424,-364.81C-0.908,-382.764 -1.967,-400.871 -5.16,-418.623C-8.398,-436.633 -13.686,-453.393 -22.019,-469.756C-30.211,-485.839 -40.912,-500.556 -53.68,-513.315C-66.444,-526.074 -81.166,-536.768 -97.254,-544.955C-113.635,-553.29 -130.413,-558.576 -148.442,-561.813C-166.197,-565.001 -184.309,-566.058 -202.262,-566.543C-210.505,-566.766 -218.747,-566.86 -226.992,-566.911C-236.78,-566.971 -246.568,-566.966 -256.356,-566.966L-370.003,-567.373L-455.002,-567.373L-566.639,-566.966C-576.446,-566.966 -586.253,-566.971 -596.06,-566.911C-604.322,-566.86 -612.58,-566.766 -620.838,-566.543C-638.833,-566.058 -656.986,-565 -674.783,-561.808C-692.836,-558.572 -709.64,-553.288 -726.042,-544.959C-742.165,-536.771 -756.917,-526.076 -769.709,-513.315C-782.5,-500.557 -793.22,-485.843 -801.427,-469.764C-809.783,-453.392 -815.081,-436.621 -818.327,-418.602C-821.523,-400.856 -822.582,-382.756 -823.069,-364.81C-823.291,-356.573 -823.387,-348.334 -823.437,-340.094C-823.497,-330.31 -824,-318.157 -824,-308.374L-824,-112.375L-823.492,0.054C-823.492,9.85 -823.496,19.646 -823.437,29.442C-823.387,37.694 -823.291,45.944 -823.068,54.193C-822.582,72.169 -821.521,90.302 -818.322,108.079C-815.077,126.111 -809.78,142.897 -801.431,159.28C-793.223,175.386 -782.5,190.122 -769.709,202.899C-756.918,215.676 -742.169,226.384 -726.05,234.583C-709.638,242.929 -692.826,248.222 -674.762,251.463C-656.973,254.656 -638.826,255.715 -620.838,256.2C-612.58,256.423 -604.321,256.518 -596.059,256.568C-586.252,256.627 -576.446,256.627 -566.639,256.627L-256.356,256.627C-246.568,256.627 -236.78,256.627 -226.992,256.568C-218.747,256.518 -210.505,256.423 -202.262,256.2C-184.302,255.714 -166.184,254.654 -148.421,251.459C-130.403,248.218 -113.633,242.927 -97.262,234.586C-81.17,226.388 -66.445,215.678 -53.68,202.899C-40.914,190.124 -30.214,175.39 -22.021,159.287C-13.684,142.896 -8.396,126.103 -5.156,108.058C-1.966,90.288 -0.908,72.162 -0.423,54.193C-0.2,45.943 -0.105,37.693 -0.056,29.442C0,19.646 0,9.85 0,0.054L0,-310.746" style="fill:white;"/>
    </g>
</svg>
